<svg width="18" height="34" viewBox="0 0 18 34" fill="none" xmlns="http://www.w3.org/2000/svg">
<path d="M1.15002 33.25C0.816691 33.25 0.550024 33.15 0.350024 32.95C0.116691 32.75 0.0833577 32.5167 0.250024 32.25C0.716691 31.55 1.16669 30.55 1.60002 29.25C2.00002 27.9833 2.35002 26.65 2.65002 25.25C2.98336 23.85 3.25002 22.5833 3.45002 21.45C3.68336 20.2833 3.85002 19.4667 3.95002 19C3.35002 18.4333 3.05002 17.8 3.05002 17.1C3.05002 16.5667 3.16669 16.1167 3.40002 15.75C3.66669 15.3833 3.86669 15.2167 4.00002 15.25C4.06669 15.25 4.15002 15.2833 4.25002 15.35C4.38336 15.3833 4.45002 15.4333 4.45002 15.5C4.65002 13.9333 4.81669 12.3833 4.95002 10.85C5.08336 9.28333 5.15002 7.85 5.15002 6.55C5.15002 5.48333 5.10002 4.53333 5.00002 3.7C4.90002 2.86667 4.75002 2.2 4.55002 1.7C4.35002 1.2 4.25002 0.816665 4.25002 0.55C4.25002 0.183332 4.35002 -2.02656e-06 4.55002 -2.02656e-06C4.78336 -2.02656e-06 4.96669 0.149998 5.10002 0.449998C5.46669 1.18333 5.73336 2.33333 5.90002 3.9C6.10002 5.46667 6.20002 7.25 6.20002 9.25C6.20002 10.6167 6.16669 12.0667 6.10002 13.6C6.03336 15.1 5.91669 16.6 5.75002 18.1C6.35002 17.5667 6.96669 17.05 7.60002 16.55C8.23336 16.0167 8.78336 15.4667 9.25002 14.9V14.85C9.25002 14.7833 9.21669 14.7167 9.15002 14.65C9.11669 14.5833 9.10003 14.4833 9.10003 14.35C9.10003 14.1167 9.26669 13.8333 9.60002 13.5C9.93336 13.1667 10.3667 12.7 10.9 12.1C11.4667 11.4667 12.05 10.9 12.65 10.4C13.25 9.86667 13.8 9.61667 14.3 9.65C14.7 9.65 14.9 9.78333 14.9 10.05C14.9 10.35 14.6167 10.8 14.05 11.4C13.4834 12 12.8 12.6333 12 13.3C11.2334 13.9667 10.5167 14.5833 9.85003 15.15C9.21669 15.6833 8.80002 16.05 8.60002 16.25L6.70002 18.35L5.70002 19.4C6.13336 20.5 6.63336 21.5833 7.20002 22.65C7.76669 23.7167 8.40002 24.6 9.10003 25.3C9.83336 26 10.5834 26.35 11.35 26.35C12.15 26.35 12.9667 25.8667 13.8 24.9C14.3667 24.2 14.85 23.4167 15.25 22.55C15.65 21.6833 15.9834 21.0333 16.25 20.6C16.4167 20.2667 16.5834 20.05 16.75 19.95C16.9167 19.8167 17.05 19.75 17.15 19.75C17.3834 19.75 17.4667 19.9167 17.4 20.25C17.2667 20.6833 17.0334 21.2333 16.7 21.9C16.3667 22.5667 16.0334 23.2 15.7 23.8C15.4 24.3667 15.1667 24.7667 15 25C14.3667 25.9333 13.7334 26.6167 13.1 27.05C12.4667 27.4833 11.85 27.7 11.25 27.7C10.4834 27.7 9.73336 27.4167 9.00002 26.85C8.26669 26.2833 7.58336 25.55 6.95002 24.65C6.35002 23.75 5.80002 22.8 5.30002 21.8C4.93336 24.3333 4.48336 26.6 3.95002 28.6C3.41669 30.6333 2.83336 32.0333 2.20002 32.8C1.90002 33.1 1.55002 33.25 1.15002 33.25Z" fill="white"/>
</svg>
